<?xml version="1.0" encoding="UTF-8"?>
<svg width="666px" height="145px" viewBox="0 0 666 145" version="1.1" xmlns="http://www.w3.org/2000/svg" xmlns:xlink="http://www.w3.org/1999/xlink">
    <!-- Generator: Sketch 63.1 (92452) - https://sketch.com -->
    <title>logo</title>
    <desc>Created with Sketch.</desc>
    <defs>
        <polygon id="path-1" points="0 0.934 566.418 0.934 566.418 144.94 0 144.94"></polygon>
    </defs>
    <g id="logo" stroke="none" stroke-width="1" fill="none" fill-rule="evenodd">
        <g id="Group-4">
            <mask id="mask-2" fill="white">
                <use xlink:href="#path-1"></use>
            </mask>
            <g id="Clip-2"></g>
            <path d="M435.202,109.385 C428.501,98.541 424.905,86.033 424.905,72.967 C424.905,59.901 428.501,47.393 435.202,36.549 L435.202,109.385 Z M552.74,110.693 L552.74,35.241 C559.973,46.381 563.866,59.372 563.866,72.967 C563.866,86.563 559.973,99.554 552.74,110.693 Z M527.532,136.943 C527.88,137.107 528.243,137.219 528.645,137.189 C528.992,137.163 529.278,137.045 529.412,136.688 C529.434,136.629 529.479,136.564 529.532,136.533 C529.894,136.325 529.984,136.081 529.824,135.715 C529.821,135.708 529.817,135.703 529.814,135.697 C529.818,135.695 529.822,135.693 529.825,135.691 C529.968,135.829 530.084,135.94 530.09,135.946 C530.324,135.79 530.561,135.642 530.514,135.3 C535.855,132.193 540.835,128.388 545.321,123.902 C547.042,122.181 548.664,120.386 550.188,118.526 L550.188,140.566 L519.337,140.566 C522.142,139.533 524.876,138.322 527.532,136.943 Z M437.753,117.466 C439.517,119.701 441.406,121.857 443.451,123.902 C447.912,128.364 452.866,132.155 458.175,135.254 C458.178,135.358 458.203,135.467 458.283,135.572 C458.508,135.876 458.786,136.141 459.038,136.425 C459.114,136.509 459.209,136.588 459.251,136.689 C459.396,137.04 459.679,137.158 460.024,137.189 C460.449,137.227 460.827,137.098 461.192,136.919 C463.862,138.309 466.613,139.527 469.433,140.566 L437.753,140.566 L437.753,117.466 Z M443.594,25.581 C444.142,24.995 444.685,24.406 445.255,23.837 C458.378,10.713 475.827,3.486 494.385,3.486 C512.945,3.486 530.393,10.713 543.516,23.837 C544.085,24.406 544.629,24.995 545.177,25.581 L443.594,25.581 Z M550.188,31.552 L550.188,49.395 C550.085,49.294 549.91,49.254 549.773,49.214 C549.26,49.065 548.735,48.96 548.214,48.836 C548.146,48.819 548.063,48.818 548.015,48.778 C547.427,48.283 546.685,48.447 546.016,48.3 C545.551,48.199 545.087,48.089 544.62,48.001 C543.995,47.882 543.369,47.705 542.74,47.688 C541.414,47.653 540.087,47.721 538.761,47.717 C538.275,47.716 537.788,47.633 537.302,47.589 C535.786,47.452 534.266,47.332 532.75,47.176 C531.525,47.049 530.303,46.876 529.078,46.729 C527.21,46.505 525.338,46.532 523.466,46.65 C521.713,46.761 519.964,46.833 518.207,46.653 C517.086,46.538 515.953,46.533 514.827,46.474 C514.4,46.451 513.974,46.416 513.527,46.328 C514,46.095 514.472,45.857 514.949,45.63 C516.469,44.907 517.841,43.942 519.245,43.027 C520.504,42.207 521.781,41.416 523.054,40.62 C523.199,40.529 523.372,40.476 523.538,40.429 C525.861,39.775 528.034,38.772 530.161,37.653 C532.088,36.639 534.033,35.66 535.964,34.656 C536.356,34.453 536.726,34.21 537.108,33.987 C537.198,33.935 537.287,33.868 537.386,33.848 C538.309,33.661 539.234,33.479 540.16,33.306 C540.317,33.277 540.489,33.281 540.647,33.309 C541.312,33.426 541.911,33.218 542.506,32.965 C542.684,32.889 542.872,32.831 543.062,32.788 C544.037,32.569 545.018,32.368 545.992,32.137 C546.235,32.08 546.482,31.972 546.68,31.824 C546.788,31.744 546.799,31.531 546.853,31.379 C546.707,31.336 546.553,31.24 546.416,31.26 C545.703,31.364 544.994,31.498 544.283,31.621 C544.216,31.632 544.148,31.638 544.065,31.605 C544.521,31.337 544.984,31.078 545.433,30.797 C545.828,30.551 546.233,30.351 546.687,30.224 C546.896,30.166 547.09,29.964 547.231,29.781 C547.294,29.699 547.309,29.621 547.284,29.559 L547.307,29.553 L547.251,29.357 C547.404,29.307 547.555,29.257 547.665,29.16 C547.784,29.057 547.856,28.8 547.814,28.649 C547.78,28.525 547.552,28.446 547.401,28.367 C547.315,28.322 547.16,28.352 547.119,28.292 C547.067,28.216 547.012,28.17 546.955,28.133 L547.449,28.133 C548.396,29.251 549.318,30.385 550.188,31.552 Z M550.188,50.38 C549.789,50.218 549.38,50.082 548.975,49.937 C548.878,49.902 548.784,49.863 548.699,49.789 C548.932,49.843 549.165,49.898 549.401,49.948 C549.48,49.964 549.564,49.981 549.643,49.973 C549.836,49.955 550.066,49.956 550.188,49.818 L550.188,50.38 Z M543.516,122.098 C543.012,122.602 542.49,123.08 541.973,123.567 C539.601,125.79 537.083,127.838 534.413,129.699 C532.311,131.165 530.133,132.51 527.883,133.738 C527.598,133.895 527.319,134.067 527.021,134.196 C526.902,134.248 526.72,134.248 526.601,134.194 C525.786,133.824 524.983,133.43 524.171,133.052 C523.876,132.914 523.58,132.753 523.268,132.685 C522.257,132.463 521.787,131.716 521.484,130.847 C520.759,128.771 520.089,126.675 519.367,124.599 C518.506,122.125 517.605,119.666 516.738,117.194 C515.843,114.643 514.538,112.293 513.212,109.951 C513.089,109.734 512.996,109.446 513.025,109.207 C513.147,108.153 513.061,107.118 512.629,106.159 C512.057,104.886 511.717,103.546 511.356,102.21 C509.792,96.434 508.234,90.657 506.696,84.874 C506.551,84.331 506.556,83.747 506.512,83.18 C506.339,80.939 505.986,78.734 505.038,76.675 C504.421,75.334 503.729,74.026 503.042,72.717 C502.542,71.761 502.263,70.77 502.224,69.682 C502.119,66.803 502.624,64.002 503.225,61.21 C503.258,61.056 503.344,60.909 503.423,60.769 C504.059,59.64 504.22,58.459 503.881,57.198 C503.797,56.888 503.781,56.521 503.862,56.214 C504.068,55.442 504.279,54.658 504.613,53.936 C505.169,52.733 506.542,52.043 507.859,52.133 C510.021,52.281 512.183,52.198 514.347,52.117 C517.455,52 520.487,51.359 523.551,50.937 C524.203,50.847 524.893,50.999 525.563,51.069 C527.155,51.236 528.745,51.204 530.338,51.077 C532.007,50.943 533.677,50.803 535.347,50.685 C536.229,50.623 537.115,50.615 537.996,50.553 C538.357,50.528 538.639,50.639 538.869,50.89 C539.662,51.76 540.692,52.005 541.811,52.006 C542.299,52.006 542.807,51.89 543.272,51.988 C544.059,52.154 544.837,52.405 545.584,52.707 C545.983,52.868 546.335,53.161 546.788,53.041 C546.964,52.994 547.182,52.848 547.245,52.692 C547.336,52.47 547.13,52.324 546.928,52.223 C546.277,51.897 545.628,51.563 544.954,51.219 C546.216,51.202 547.353,51.529 548.422,52.108 C548.723,52.27 549.036,52.369 549.352,52.199 C549.488,52.127 549.64,51.964 549.656,51.828 C549.668,51.72 549.506,51.54 549.38,51.479 C548.792,51.198 548.19,50.949 547.593,50.685 C547.447,50.62 547.303,50.545 547.168,50.412 C547.275,50.42 547.389,50.404 547.486,50.438 C548.185,50.683 548.875,50.953 549.58,51.179 C549.77,51.239 549.985,51.233 550.188,51.216 L550.188,114.382 C548.17,117.088 545.946,119.668 543.516,122.098 Z M493.157,140.566 C493.194,140.543 493.23,140.518 493.266,140.493 C493.935,140.034 494.203,139.46 493.931,138.69 C493.642,137.873 493.448,137.078 493.555,136.199 C493.597,135.854 493.405,135.48 493.326,135.117 C493.262,134.827 493.156,134.533 493.161,134.242 C493.197,132.113 493.22,129.982 493.321,127.856 C493.409,125.986 493.623,124.128 493.908,122.273 C494.107,120.972 494.091,119.624 494.033,118.304 C493.972,116.948 493.777,115.595 493.574,114.25 C493.46,113.495 493.207,112.761 493.029,112.014 C492.992,111.861 492.952,111.68 493,111.542 C493.722,109.514 493.861,107.411 493.864,105.28 C493.866,103.373 493.91,101.464 494.007,99.559 C494.163,96.514 494.34,93.471 494.27,90.42 C494.253,89.663 494.23,88.907 494.214,88.151 C494.21,87.995 494.178,87.776 494.43,87.82 C494.502,87.833 494.587,88.046 494.584,88.166 C494.534,90.364 494.421,92.562 494.427,94.76 C494.431,96.362 494.598,97.964 494.672,99.567 C494.721,100.613 494.734,101.66 494.76,102.707 C494.805,104.44 494.773,106.18 494.919,107.904 C495.019,109.065 495.378,110.201 495.605,111.353 C495.65,111.579 495.676,111.841 495.609,112.054 C495.069,113.764 494.8,115.519 494.678,117.301 C494.65,117.719 494.62,118.137 494.61,118.555 C494.572,120.244 494.669,121.915 494.941,123.595 C495.207,125.242 495.283,126.926 495.371,128.597 C495.466,130.386 495.49,132.179 495.517,133.971 C495.523,134.345 495.449,134.733 495.337,135.093 C495.127,135.773 495.036,136.448 495.148,137.157 C495.179,137.357 495.104,137.582 495.042,137.784 C494.952,138.084 494.792,138.366 494.727,138.67 C494.571,139.404 494.684,140.063 495.38,140.506 C495.41,140.524 495.437,140.547 495.465,140.566 L493.157,140.566 Z M490.266,28.133 C489.708,29.012 489.408,29.992 489.236,31.022 C489.174,31.39 489.112,31.757 489.057,32.125 C489.023,32.358 488.967,32.549 488.762,32.721 C488.626,32.835 488.542,33.095 488.551,33.285 C488.581,33.946 488.638,34.608 488.738,35.261 C488.769,35.466 488.915,35.655 489.05,35.882 L489.028,35.921 L489.097,35.962 C489.101,35.969 489.106,35.975 489.11,35.982 C489.112,35.978 489.114,35.976 489.116,35.972 L489.584,36.244 C489.66,36.675 489.736,37.106 489.82,37.535 C489.988,38.385 490.343,39.145 490.98,39.76 C491.085,39.863 491.161,40.029 491.188,40.178 C491.323,40.933 491.188,41.675 491.111,42.429 C491.003,43.498 490.281,43.944 489.476,44.367 C489.26,44.48 489.039,44.602 488.805,44.657 C488.643,44.695 488.432,44.67 488.284,44.595 C487.401,44.149 486.55,43.633 485.65,43.23 C484.122,42.547 482.524,42.104 480.84,41.983 C480.447,41.954 480.053,41.798 479.678,41.653 C476.703,40.504 473.727,39.356 470.764,38.177 C470.009,37.877 469.286,37.492 468.566,37.111 C465.785,35.641 462.87,34.527 459.833,33.7 C458.342,33.294 456.902,32.705 455.425,32.244 C454.238,31.873 453.038,31.53 451.827,31.247 C450.961,31.045 450.298,30.553 449.62,30.031 C449.146,29.667 448.605,29.386 448.085,29.082 C447.536,28.759 446.982,28.447 446.428,28.133 L490.266,28.133 Z M543.578,28.658 C543.651,28.588 543.73,28.487 543.739,28.394 C543.745,28.31 543.752,28.22 543.756,28.133 L546.401,28.133 C546.371,28.143 546.342,28.151 546.312,28.163 C545.384,28.502 544.453,28.831 543.527,29.176 C543.478,29.195 543.432,29.223 543.387,29.253 L543.379,29.22 L542.868,29.333 C543.114,29.122 543.341,28.883 543.578,28.658 Z M497.923,40.002 C497.931,39.888 497.997,39.743 498.085,39.677 C498.623,39.276 498.899,38.713 499.026,38.088 C499.144,37.505 499.251,36.919 499.356,36.333 L499.897,36.016 L499.894,36.011 C499.989,35.938 500.059,35.836 500.104,35.719 C500.219,35.42 500.286,35.097 500.338,34.779 C500.403,34.389 500.432,33.993 500.473,33.6 C500.509,33.246 500.501,32.911 500.243,32.613 C500.158,32.517 500.135,32.329 500.148,32.19 C500.275,30.856 499.916,29.621 499.354,28.442 C499.303,28.335 499.231,28.236 499.17,28.133 L542.572,28.133 C542.324,28.282 542.074,28.426 541.824,28.57 C541.532,28.74 541.245,28.927 540.931,29.046 C540.163,29.337 539.534,29.828 538.926,30.357 C538.488,30.738 538,31.037 537.432,31.155 C535.006,31.659 532.698,32.537 530.362,33.331 C529.139,33.747 527.886,34.073 526.648,34.442 C524.517,35.076 522.506,36.005 520.557,37.051 C518.864,37.96 517.052,38.555 515.278,39.255 C513.231,40.062 511.187,40.877 509.157,41.725 C508.621,41.948 508.078,41.967 507.528,42.04 C505.386,42.321 503.399,43.047 501.538,44.142 C501.163,44.362 500.745,44.509 500.347,44.691 C499.778,44.38 499.202,44.08 498.64,43.755 C497.836,43.289 497.919,42.453 497.862,41.708 C497.818,41.144 497.885,40.569 497.923,40.002 Z M445.172,28.251 C445.305,28.529 445.508,28.775 445.694,29.024 C445.755,29.105 445.848,29.167 445.935,29.225 C445.993,29.264 446.048,29.304 446.105,29.344 L445.578,29.239 C445.554,29.223 445.529,29.21 445.502,29.2 C444.529,28.838 443.552,28.486 442.577,28.133 L445.162,28.133 C445.166,28.173 445.159,28.221 445.172,28.251 Z M478.882,140.566 C476.873,140.114 474.885,139.574 472.923,138.924 C471.025,138.295 469.165,137.544 467.289,136.847 C467.171,136.803 467.058,136.742 466.854,136.649 C467.309,136.711 467.667,136.795 468.026,136.8 C468.51,136.807 469.004,136.797 469.479,136.713 C470.22,136.581 470.62,136.086 470.72,135.346 C470.753,135.092 470.782,134.838 470.805,134.583 C470.846,134.142 470.906,133.715 471.144,133.316 C471.275,133.098 471.381,132.802 471.351,132.559 C471.195,131.278 471.644,130.139 472.162,129.033 C472.824,127.623 473.525,126.228 474.29,124.871 C474.628,124.274 475.151,123.776 475.618,123.258 C477.255,121.437 478.446,119.341 479.454,117.125 C480.271,115.33 480.904,113.472 481.527,111.604 C481.918,110.428 482.505,109.317 483.003,108.178 C483.106,107.943 483.201,107.706 483.298,107.47 C483.437,107.137 483.547,106.79 483.717,106.475 C484.137,105.697 484.583,104.936 485.019,104.167 C485.055,104.169 485.091,104.172 485.127,104.175 C485.207,104.736 485.275,105.3 485.371,105.858 C485.497,106.58 485.594,107.314 485.801,108.013 C486.029,108.781 486.03,109.55 485.998,110.329 C485.938,111.852 485.838,113.373 485.803,114.897 C485.743,117.493 485.876,120.085 486.232,122.657 C486.372,123.679 486.641,124.688 486.916,125.685 C487.548,127.974 488.22,130.251 488.877,132.533 C489.128,133.405 489.39,134.275 489.632,135.15 C489.672,135.296 489.658,135.467 489.63,135.619 C489.507,136.305 489.376,136.988 489.233,137.669 C489.193,137.857 489.133,138.056 489.026,138.211 C488.562,138.881 488.07,139.53 487.602,140.198 C487.504,140.338 487.389,140.451 487.275,140.566 L478.882,140.566 Z M501.614,140.566 C501.122,140.13 500.689,139.623 500.289,139.065 C499.578,138.071 499.185,136.993 499.092,135.807 C499.054,135.311 499.14,134.783 499.273,134.299 C499.945,131.84 500.621,129.381 501.356,126.94 C501.802,125.455 502.281,123.982 502.48,122.44 C502.583,121.633 502.679,120.821 502.71,120.01 C502.785,118.08 502.86,116.149 502.854,114.218 C502.849,112.578 502.716,110.94 502.673,109.301 C502.661,108.878 502.754,108.449 502.828,108.027 C503.022,106.905 503.231,105.786 503.434,104.666 C503.464,104.498 503.495,104.329 503.525,104.16 C503.56,104.154 503.594,104.148 503.629,104.141 C504.018,104.866 504.41,105.59 504.794,106.317 C505.96,108.525 506.906,110.82 507.677,113.199 C508.606,116.065 509.81,118.82 511.533,121.31 C512.2,122.273 512.997,123.145 513.736,124.059 C513.837,124.185 513.952,124.306 514.028,124.446 C514.78,125.826 515.561,127.191 516.257,128.599 C516.667,129.427 516.979,130.312 517.258,131.194 C517.376,131.567 517.266,132.007 517.321,132.407 C517.37,132.767 517.511,133.113 517.597,133.469 C517.7,133.894 517.79,134.321 517.88,134.749 C517.899,134.839 517.886,134.936 517.898,135.027 C518.06,136.294 518.614,136.806 519.941,136.827 C520.539,136.837 521.14,136.74 521.789,136.688 C521.284,136.899 520.814,137.104 520.338,137.294 C516.894,138.671 513.362,139.761 509.746,140.566 L501.614,140.566 Z M441.322,28.133 L442.044,28.133 C441.993,28.163 441.939,28.179 441.891,28.233 C441.827,28.306 441.698,28.359 441.598,28.359 C441.337,28.356 441.166,28.463 441.111,28.712 C441.049,28.984 441.205,29.16 441.429,29.269 C441.584,29.343 441.758,29.379 441.924,29.432 C441.677,29.447 441.596,29.598 441.729,29.78 C441.858,29.957 442.041,30.171 442.233,30.21 C442.788,30.322 443.23,30.635 443.698,30.909 C444.096,31.142 444.497,31.368 444.876,31.661 C444.146,31.534 443.416,31.406 442.686,31.279 C442.606,31.265 442.52,31.231 442.446,31.246 C442.33,31.271 442.154,31.306 442.126,31.382 C442.089,31.485 442.124,31.686 442.204,31.748 C442.401,31.899 442.627,32.047 442.865,32.105 C443.906,32.354 444.954,32.569 445.999,32.8 C446.121,32.827 446.246,32.859 446.359,32.913 C446.988,33.216 447.633,33.326 448.344,33.328 C449.148,33.332 449.953,33.527 450.753,33.665 C451.28,33.755 451.761,33.939 452.237,34.221 C453.197,34.789 454.217,35.255 455.212,35.764 C457.326,36.846 459.425,37.956 461.559,38.998 C462.465,39.441 463.423,39.798 464.391,40.088 C465.374,40.382 466.266,40.817 467.115,41.381 C468.588,42.36 470.06,43.346 471.572,44.262 C472.686,44.937 473.864,45.505 475.013,46.119 C475.133,46.184 475.256,46.244 475.369,46.372 C474.96,46.403 474.552,46.442 474.143,46.464 C472.761,46.54 471.373,46.562 469.996,46.695 C467.781,46.908 465.582,46.609 463.376,46.562 C461.615,46.525 459.869,46.691 458.123,46.916 C456.786,47.089 455.439,47.186 454.096,47.319 C452.869,47.441 451.643,47.588 450.413,47.677 C449.745,47.725 449.068,47.662 448.394,47.67 C447.348,47.681 446.298,47.675 445.256,47.749 C444.731,47.786 444.221,48.005 443.698,48.101 C442.979,48.234 442.25,48.317 441.53,48.445 C441.299,48.486 441.082,48.604 440.86,48.686 C440.731,48.734 440.606,48.796 440.473,48.829 C439.955,48.962 439.434,49.083 438.915,49.214 C438.827,49.236 438.723,49.263 438.663,49.324 C438.575,49.417 438.452,49.55 438.465,49.65 C438.479,49.751 438.639,49.904 438.739,49.907 C439.148,49.921 439.558,49.886 439.906,49.872 C439.587,49.989 439.189,50.137 438.789,50.284 C438.626,50.345 438.443,50.378 438.305,50.475 C438.187,50.559 438.038,50.726 438.051,50.84 C438.067,50.982 438.208,51.161 438.343,51.226 C438.687,51.392 438.999,51.23 439.334,51.092 C440.036,50.804 440.765,50.58 441.483,50.329 C441.502,50.378 441.522,50.425 441.541,50.474 C441.376,50.556 441.214,50.645 441.046,50.721 C440.494,50.968 439.932,51.195 439.39,51.463 C439.246,51.534 439.05,51.754 439.077,51.851 C439.119,52.005 439.312,52.187 439.47,52.222 C439.692,52.271 439.958,52.242 440.174,52.162 C440.609,52.002 441.007,51.736 441.448,51.604 C441.988,51.442 442.556,51.366 443.113,51.261 C443.318,51.223 443.527,51.21 443.754,51.227 C443.31,51.451 442.867,51.677 442.422,51.899 C442.13,52.045 441.829,52.174 441.548,52.338 C441.453,52.392 441.349,52.534 441.356,52.629 C441.363,52.723 441.487,52.847 441.588,52.89 C441.966,53.05 442.335,52.969 442.704,52.818 C443.393,52.539 444.077,52.231 444.787,52.025 C445.174,51.914 445.616,51.967 446.031,51.985 C447.06,52.03 448.091,52.076 449.023,51.536 C449.35,51.345 449.638,51.08 449.923,50.825 C450.158,50.617 450.408,50.537 450.719,50.555 C451.973,50.63 453.23,50.672 454.483,50.759 C456.13,50.874 457.774,51.062 459.422,51.136 C460.617,51.19 461.831,51.219 463.011,51.063 C464.471,50.87 465.879,51.002 467.305,51.257 C469.596,51.668 471.893,52.042 474.229,52.094 C475.834,52.13 477.439,52.193 479.044,52.211 C479.729,52.219 480.415,52.156 481.099,52.098 C482.223,52.003 483.686,52.881 484.187,54.08 C484.508,54.847 484.702,55.669 484.919,56.476 C484.966,56.648 484.893,56.866 484.835,57.051 C484.425,58.36 484.588,59.602 485.244,60.794 C485.322,60.935 485.4,61.086 485.427,61.241 C485.888,63.867 486.345,66.49 486.316,69.174 C486.298,70.745 485.828,72.164 485.13,73.543 C484.453,74.881 483.689,76.2 483.221,77.612 C482.754,79.025 482.49,80.531 482.351,82.017 C482.2,83.63 481.853,85.182 481.44,86.734 C480.58,89.962 479.739,93.195 478.877,96.424 C478.178,99.045 477.469,101.662 476.748,104.276 C476.616,104.757 476.428,105.227 476.221,105.681 C475.704,106.811 475.515,107.982 475.643,109.22 C475.666,109.452 475.58,109.726 475.468,109.939 C474.976,110.863 474.462,111.776 473.945,112.688 C472.987,114.376 472.281,116.177 471.634,117.997 C470.589,120.937 469.586,123.891 468.603,126.851 C468.008,128.642 467.414,130.43 466.483,132.081 C466.397,132.233 466.265,132.399 466.114,132.468 C464.895,133.018 463.659,133.53 462.445,134.09 C462.037,134.277 461.728,134.244 461.348,134.016 C459.872,133.127 458.353,132.31 456.891,131.401 C454.402,129.854 452.02,128.149 449.795,126.241 C449.58,126.061 449.37,125.874 449.159,125.691 C448.575,125.184 447.993,124.675 447.417,124.157 C446.687,123.485 445.961,122.804 445.255,122.098 C442.481,119.324 439.988,116.347 437.753,113.217 L437.753,32.717 C438.874,31.147 440.064,29.618 441.322,28.133 Z M437.753,28.469 L437.753,28.133 L438.016,28.133 C437.927,28.244 437.842,28.357 437.753,28.469 Z M552.74,115.202 C561.616,102.993 566.418,88.353 566.418,72.967 C566.418,57.583 561.616,42.941 552.74,30.733 L552.74,25.581 L548.616,25.581 C547.556,24.371 546.468,23.18 545.321,22.032 C531.715,8.427 513.626,0.934 494.385,0.934 C475.145,0.934 457.056,8.427 443.451,22.032 C442.302,23.18 441.214,24.371 440.155,25.581 L435.202,25.581 L435.202,31.908 C426.861,43.877 422.352,58.072 422.352,72.967 C422.352,87.862 426.861,102.058 435.202,114.026 L435.202,143.119 L478.001,143.119 C483.313,144.35 488.798,145 494.385,145 C499.973,145 505.457,144.35 510.77,143.119 L552.74,143.119 L552.74,115.202 L552.74,115.202 Z" id="Fill-1" fill="#00A3DA" mask="url(#mask-2)"></path>
            <polyline id="Fill-3" fill="#777776" mask="url(#mask-2)" points="54.315 50.67 54.315 98.549 46.751 98.549 46.751 76.345 7.565 76.345 7.565 98.549 0 98.549 0 50.67 7.565 50.67 7.565 71.785 46.751 71.785 46.751 50.67 54.315 50.67"></polyline>
        </g>
        <path d="M112.6,50.67 L120.165,50.67 L120.165,84.202 C120.165,90.282 118.453,94.276 115.033,96.181 C111.613,98.087 104.433,99.039 93.501,99.039 C83.253,99.039 76.291,98.122 72.608,96.286 C68.925,94.45 67.083,90.96 67.083,85.816 L67.083,50.67 L74.642,50.67 L74.642,84.202 C74.642,88.739 75.677,91.586 77.735,92.743 C79.798,93.901 84.873,94.48 92.958,94.48 C101.733,94.48 107.199,93.912 109.362,92.778 C111.525,91.645 112.6,88.785 112.6,84.202 L112.6,50.67" id="Fill-5" fill="#777776"></path>
        <path d="M206.447,50.67 L206.447,98.549 L198.882,98.549 L198.882,57.369 L198.934,55.931 L198.981,54.493 L198.788,54.493 L198.198,55.615 C197.9,56.176 197.707,56.539 197.608,56.703 L196.333,58.947 L173.498,98.549 L165.934,98.549 L143.053,59.403 L141.725,57.193 L141.135,56.071 C140.971,55.814 140.772,55.452 140.544,54.984 L140.351,54.984 L140.398,56.282 L140.445,57.615 L140.445,98.549 L132.886,98.549 L132.886,50.67 L145.999,50.67 L163.87,81.642 L166.717,86.657 L168.143,89.149 L169.517,91.639 L169.716,91.639 L171.09,89.149 C171.78,87.955 172.236,87.125 172.464,86.657 L175.364,81.677 L193.141,50.67 L206.447,50.67" id="Fill-6" fill="#777776"></path>
        <path d="M258.155,84.343 L243.277,55.089 L228.598,84.343 L258.155,84.343 Z M260.365,88.411 L226.434,88.411 L221.278,98.549 L213.275,98.549 L237.828,50.67 L248.433,50.67 L273.477,98.549 L265.574,98.549 L260.365,88.411 L260.365,88.411 Z" id="Fill-7" fill="#777776"></path>
        <polyline id="Fill-8" fill="#777776" points="337.614 50.67 337.614 98.549 325.185 98.549 297.101 65.963 292.53 60.596 288.016 55.264 287.818 55.264 287.865 57.053 287.917 58.878 287.917 98.549 280.352 98.549 280.352 50.67 292.728 50.67 317.235 79.222 323.619 86.728 326.811 90.446 329.95 94.199 330.149 94.199 330.096 92.41 330.05 90.586 330.05 50.67 337.614 50.67"></polyline>
        <polyline id="Fill-9" fill="#00A3DA" points="361.285 58.316 361.285 70.663 392.713 70.663 392.713 77.362 361.285 77.362 361.285 90.901 394.724 90.901 394.724 98.549 348.564 98.549 348.564 50.67 394.432 50.67 394.432 58.316 361.285 58.316"></polyline>
        <path d="M626.476,82.659 L614.883,57.72 L603.49,82.659 L626.476,82.659 Z M629.422,89.359 L600.496,89.359 L596.323,98.549 L582.865,98.549 L605.161,50.67 L624.266,50.67 L646.902,98.549 L633.69,98.549 L629.422,89.359 L629.422,89.359 Z" id="Fill-10" fill="#777776"></path>
        <polygon id="Fill-11" fill="#777776" points="652.696 98.549 665.416 98.549 665.416 50.67 652.696 50.67"></polygon>
    </g>
</svg>